HIERARCHY
ROOT root
{
	OFFSET	0	13.1	24.9
	CHANNELS 6  Xposition Yposition Zposition Xrotation Yrotation Zrotation
	JOINT spine_1
	{
		OFFSET	0	9.99999	0
		CHANNELS 3  Xrotation Yrotation Zrotation
		JOINT spine_2
		{
			OFFSET	0	112	-10
			CHANNELS 3  Xrotation Yrotation Zrotation
			JOINT spine_3
			{
				OFFSET	0	206.5	19.3
				CHANNELS 3  Xrotation Yrotation Zrotation
				JOINT spine_4
				{
					OFFSET	0	110.4	14.6
					CHANNELS 3  Xrotation Yrotation Zrotation
					JOINT neck_1
					{
						OFFSET	0	71.8	-50.3
						CHANNELS 3  Xrotation Yrotation Zrotation
						JOINT neck_2
						{
							OFFSET	0	86.2	-25.8
							CHANNELS 3  Xrotation Yrotation Zrotation
							JOINT head_ee
							{
								OFFSET	0	179.8	-8.7
								CHANNELS 3  Xrotation Yrotation Zrotation
								End Site
								{
									OFFSET	1	0	0
								}
							}
						}
					}
					JOINT left_clavicle
					{
						OFFSET	-43.2	22.4	-70.8
						CHANNELS 3  Xrotation Yrotation Zrotation
						JOINT left_shoulder
						{
							OFFSET	-93.9	-5.79999	48.7
							CHANNELS 3  Xrotation Yrotation Zrotation
							JOINT left_elbow
							{
								OFFSET	-291.4	-30.8	15.2
								CHANNELS 3  Xrotation Yrotation Zrotation
								JOINT left_lowarm_twist
								{
									OFFSET	-110.7	-3.89999	13.6
									CHANNELS 3  Xrotation Yrotation Zrotation
									JOINT left_hand
									{
										OFFSET	-110.7	-3.89999	13.6
										CHANNELS 3  Xrotation Yrotation Zrotation
										JOINT left_ee
										{
											OFFSET	-80.8	-5.10001	12.1
											CHANNELS 3  Xrotation Yrotation Zrotation
											End Site
											{
												OFFSET	1	0	0
											}
										}
									}
								}
							}
						}
					}
					JOINT right_clavicle
					{
						OFFSET	43.2	22.4	-70.8
						CHANNELS 3  Xrotation Yrotation Zrotation
						JOINT right_shoulder
						{
							OFFSET	93.9	-5.79999	48.7
							CHANNELS 3  Xrotation Yrotation Zrotation
							JOINT right_elbow
							{
								OFFSET	291.4	-30.8	15.2
								CHANNELS 3  Xrotation Yrotation Zrotation
								JOINT right_lowarm_twist
								{
									OFFSET	110.7	-3.89999	13.6
									CHANNELS 3  Xrotation Yrotation Zrotation
									JOINT right_hand
									{
										OFFSET	110.7	-3.89999	13.6
										CHANNELS 3  Xrotation Yrotation Zrotation
										JOINT right_ee
										{
											OFFSET	80.8	-5.10001	12.1
											CHANNELS 3  Xrotation Yrotation Zrotation
											End Site
											{
												OFFSET	1	0	0
											}
										}
									}
								}
							}
						}
					}
				}
			}
		}
	}
	JOINT left_hip
	{
		OFFSET	-82.8	-127.5	0.300001
		CHANNELS 3  Xrotation Yrotation Zrotation
		JOINT left_knee
		{
			OFFSET	-28.2	-396.7	2.2
			CHANNELS 3  Xrotation Yrotation Zrotation
			JOINT left_ankle
			{
				OFFSET	-11.7	-411.3	35.4
				CHANNELS 3  Xrotation Yrotation Zrotation
				JOINT left_toes
				{
					OFFSET	0	-60	-88.6
					CHANNELS 3  Xrotation Yrotation Zrotation
					JOINT left_foot_ee
					{
						OFFSET	-22.5	-16.5	-42.2
						CHANNELS 3  Xrotation Yrotation Zrotation
						End Site
						{
							OFFSET	1	0	0
						}
					}
				}
			}
		}
	}
	JOINT right_hip
	{
		OFFSET	82.8	-127.5	0.300001
		CHANNELS 3  Xrotation Yrotation Zrotation
		JOINT right_knee
		{
			OFFSET	28.2	-396.7	2.2
			CHANNELS 3  Xrotation Yrotation Zrotation
			JOINT right_ankle
			{
				OFFSET	11.7	-411.3	35.4
				CHANNELS 3  Xrotation Yrotation Zrotation
				JOINT right_toes
				{
					OFFSET	0	-60	-88.6
					CHANNELS 3  Xrotation Yrotation Zrotation
					JOINT right_foot_ee
					{
						OFFSET	22.5	-16.5	-42.2
						CHANNELS 3  Xrotation Yrotation Zrotation
						End Site
						{
							OFFSET	1	0	0
						}
					}
				}
			}
		}
	}
}
MOTION
Frames: 12
Frame Time: 0.02
1052.01 679.279 -574.961 -161.521 -83.3933 -160.275 0.637749 0.371981 1.71644 0.63935 0.262023 1.73662 0.647946 -0.088982 1.75401 0.643702 0.189105 1.74606 -25.5522 3.90637 -0.230056 -25.674 7.62247 1.80333 -0.0 0.0 -0.0 -0.139723 22.548 2.41943 -23.5874 -29.2093 62.0606 0.57202 -15.8209 0.0794812 -68.5409 -6.35996 5.28678 3.98968 -3.92019 26.0975 -0.0 0.0 -0.0 12.604 21.6921 -25.1948 4.99816 18.1428 -56.2007 3.6007 60.7079 -2.10909 -11.5557 0.547381 -1.36981 -2.36364 1.50817 16.7181 0.0 0.0 0.0 36.1129 33.0427 -11.2055 -6.21417 0.205522 0.931082 -8.30725 -19.6595 1.40359 -28.7309 0.0 0.0 -0.0 0.0 -0.0 -21.6485 -3.57588 4.9575 -5.86451 -0.196651 -0.878155 28.387 4.20511 3.77625 -15.3015 0.0 0.0 0.0 0.0 0.0 
1075.77 685.299 -586.415 -159.74 -83.3325 -158.418 0.637797 0.338693 1.50463 0.639024 0.242274 1.52313 0.645975 -0.0658805 1.54086 0.642706 0.178268 1.53193 -22.39 4.24719 2.26737 -22.4609 7.14044 4.05411 -0.0 0.0 -0.0 0.0805282 23.4083 2.81875 -23.8048 -29.9879 61.0549 0.607982 -16.7612 0.0895695 -69.5212 -6.48493 5.2977 3.12451 -1.79051 20.656 -0.0 0.0 -0.0 12.5358 22.244 -24.9898 3.24139 17.5434 -55.2166 3.42999 59.5071 -1.96108 -11.6394 0.552341 -1.3793 -2.31256 0.312215 15.7909 0.0 0.0 0.0 34.6794 33.0154 -10.3402 -8.52884 0.256079 1.28266 -1.49808 -19.5778 0.249273 -25.8007 0.0 0.0 -0.0 0.0 -0.0 -20.8717 -3.21724 6.23271 -8.61226 -0.257635 -1.29537 19.9535 2.73293 2.76562 -13.5498 0.0 0.0 0.0 0.0 0.0 
1099.76 688.966 -591.745 -159.555 -83.2727 -158.087 0.544705 0.270126 1.52508 0.545982 0.172545 1.53918 0.551131 -0.13999 1.54248 0.547826 0.105343 1.54523 -22.3727 3.54421 3.32858 -22.3871 5.28831 4.70888 -0.0 0.0 -0.0 0.0495139 23.6854 2.80607 -23.5526 -30.7751 60.8843 0.617511 -17.0088 0.0923373 -70.6618 -6.63052 5.30771 2.65839 -0.142956 18.0089 -0.0 0.0 -0.0 12.3955 21.7516 -24.7083 1.26021 16.7909 -55.9232 3.71206 61.4456 -2.20656 -13.2856 0.652741 -1.56449 -2.19139 0.170282 14.8828 0.0 0.0 0.0 32.3106 32.5515 -10.0201 -8.73195 0.259836 1.3136 3.32749 -20.9227 -0.553031 -25.6725 0.0 0.0 -0.0 0.0 -0.0 -21.03 -2.50623 6.44805 -10.1365 -0.282813 -1.52789 16.2015 2.53879 2.28362 -11.9456 0.0 0.0 0.0 0.0 0.0 
1121.09 689.763 -598.921 -163.336 -83.3803 -161.958 0.551142 0.248202 1.3559 0.55215 0.161427 1.36895 0.556416 -0.116572 1.37349 0.553797 0.101787 1.37467 -22.2354 4.5691 3.92351 -22.2712 6.98026 5.72029 -0.0 0.0 -0.0 0.0484009 23.9511 2.83309 -23.0743 -31.0947 60.6713 0.659576 -18.0941 0.105023 -70.5267 -6.61326 5.30667 1.70187 0.402034 11.6062 -0.0 0.0 -0.0 12.2131 20.1003 -24.4165 -0.619602 16.0879 -55.9337 3.83207 62.2033 -2.31235 -15.5273 0.797952 -1.81192 -1.85812 -2.24369 11.462 0.0 0.0 0.0 30.7712 32.415 -9.38601 -11.1664 0.296319 1.68534 7.63264 -19.4026 -1.2319 -24.93 0.0 0.0 -0.0 0.0 -0.0 -20.9596 -1.03632 7.36841 -13.3666 -0.31568 -2.02235 12.8761 -0.100277 1.82725 -11.267 0.0 0.0 0.0 0.0 0.0 
1136.35 695.192 -606.087 -165.195 -82.4898 -163.121 0.571931 0.237425 0.956541 0.572423 0.176079 0.969709 0.575628 -0.0217588 0.985324 0.574297 0.13412 0.976396 -20.9328 4.33526 3.92867 -20.9499 6.4333 5.52143 -0.0 0.0 -0.0 0.504729 23.2683 3.38658 -23.2007 -31.412 60.7747 0.692993 -18.9468 0.115638 -71.4842 -6.73555 5.31311 1.15364 5.49434 9.90851 -0.0 0.0 -0.0 12.6418 21.7605 -25.2766 -1.52555 14.259 -55.4944 3.55075 60.3656 -2.0656 -16.9079 0.892176 -1.96144 -1.84657 -0.902555 12.0105 0.0 0.0 0.0 29.1143 33.0171 -9.25139 -10.6509 0.289914 1.60651 11.0378 -20.7331 -1.77922 -22.3845 0.0 0.0 -0.0 0.0 -0.0 -19.8259 0.33158 7.6273 -16.5811 -0.320677 -2.51547 11.7428 -3.53681 1.66336 -13.9374 0.0 0.0 0.0 0.0 0.0 
1152.74 697.734 -611.001 -166.421 -81.9701 -164.241 0.520039 0.195106 0.926294 0.520506 0.13577 0.93683 0.522931 -0.0555381 0.944986 0.521697 0.0943951 0.941899 -20.9979 4.45369 4.87729 -20.9867 6.20184 6.45438 -0.0 0.0 -0.0 0.511704 22.9516 3.36626 -22.776 -31.5337 60.5704 0.727592 -19.8206 0.127122 -71.2769 -6.70907 5.31189 0.767824 6.56014 7.76816 -0.0 0.0 -0.0 12.5694 21.3701 -25.1414 -2.68844 14.4462 -55.9478 3.36129 58.9984 -1.90204 -18.3066 0.991299 -2.1106 -1.61806 -1.20087 10.3205 0.0 0.0 0.0 28.0896 33.0669 -9.03117 -11.3171 0.298059 1.7084 12.8958 -19.2614 -2.03439 -21.5491 0.0 0.0 -0.0 0.0 -0.0 -19.0285 1.39456 7.43657 -18.1542 -0.31304 -2.75669 7.56485 -5.15325 1.08538 -15.4116 0.0 0.0 0.0 0.0 0.0 
1166.13 700.375 -617.352 -167.339 -80.3179 -165.051 0.558664 0.37842 0.872903 0.55903 0.32211 0.895212 0.564303 0.136071 0.941614 0.563178 0.283067 0.908312 -21.7914 4.21382 4.57448 -21.7871 5.95326 6.12605 -0.0 0.0 -0.0 0.784399 23.541 3.7945 -22.3185 -30.8273 60.4242 0.817724 -22.0516 0.159334 -72.1459 -6.82011 5.31635 -0.219565 11.1421 3.20412 -0.0 0.0 -0.0 12.3729 22.3073 -24.6085 -3.53315 14.7133 -56.1317 3.23462 58.0192 -1.79401 -19.1986 1.05641 -2.20445 -1.50859 -0.91887 9.70908 0.0 0.0 0.0 27.8262 31.9425 -9.55417 -12.3804 0.308603 1.8712 13.2895 -19.7237 -2.10147 -19.211 0.0 0.0 -0.0 0.0 -0.0 -18.7903 1.7127 7.98028 -17.4687 -0.317182 -2.6516 8.12974 -7.59094 1.16287 -15.8372 0.0 0.0 0.0 0.0 0.0 
1178.13 705.21 -624.6 -170.242 -79.2619 -167.592 0.280953 0.296454 0.703057 0.281193 0.251117 0.720495 0.284529 0.0978489 0.7567 0.283795 0.216124 0.731752 -20.3391 4.11533 4.36002 -20.3311 5.74871 5.78473 -0.0 0.0 -0.0 1.58189 23.1588 4.86158 -22.7031 -32.0675 59.5376 0.794015 -21.4712 0.150544 -71.3376 -6.71683 5.31226 -0.121026 10.7427 3.66927 -0.0 0.0 -0.0 12.5915 23.0571 -25.0445 -5.28829 14.6795 -54.7926 3.13631 57.2203 -1.71099 -20.5989 1.16156 -2.34973 -1.5595 -0.360682 10.3086 0.0 0.0 0.0 25.796 30.5969 -9.13066 -12.72 0.311333 1.92324 16.5317 -17.5641 -2.52757 -17.0048 0.0 0.0 -0.0 0.0 -0.0 -17.3517 2.39055 7.46085 -20.0374 -0.295193 -3.04508 10.7981 -11.6972 1.53404 -17.0489 0.0 0.0 0.0 0.0 0.0 
1191.99 707.085 -631.196 -172.072 -78.2618 -168.928 0.0911468 0.162244 0.52729 0.0912923 0.128363 0.536545 0.0925914 0.0136203 0.551518 0.0921809 0.10055 0.542446 -21.584 2.67786 3.41553 -21.5697 3.52725 4.35546 -0.0 0.0 -0.0 1.85038 23.5676 5.25504 -22.6412 -32.2949 59.4206 0.845916 -22.7355 0.170074 -71.8357 -6.78048 5.31496 -0.41561 12.4542 2.50325 -0.0 0.0 -0.0 12.3031 23.1638 -24.3697 -6.3617 16.1549 -55.2058 3.1685 57.4858 -1.7381 -22.2164 1.28742 -2.51432 -1.56592 -0.199487 10.4258 0.0 0.0 0.0 24.0874 29.6483 -8.94426 -12.2577 0.30754 1.85241 17.2831 -15.9342 -2.59952 -14.0095 0.0 0.0 -0.0 0.0 -0.0 -17.2465 3.63009 7.53871 -21.2234 -0.279092 -3.22635 12.1157 -16.1689 1.72776 -18.0024 0.0 0.0 0.0 0.0 0.0 
1203.6 711.683 -634.553 -171.556 -77.6661 -168.1 0.111798 -0.00571563 0.424755 0.111897 -0.032732 0.42353 0.11169 -0.120225 0.407425 0.111462 -0.0543718 0.421299 -21.6214 2.40766 3.62761 -21.5968 2.90627 4.43332 -0.0 0.0 -0.0 2.22633 23.3714 5.76198 -22.2378 -32.5092 59.0912 0.850193 -22.8387 0.171731 -71.8829 -6.7865 5.31518 -0.716468 14.401 1.43666 -0.0 0.0 -0.0 12.455 23.462 -24.691 -7.94005 17.074 -55.435 2.98262 55.8979 -1.58274 -22.9828 1.34867 -2.59106 -1.61487 -0.0924995 10.8073 0.0 0.0 0.0 22.7074 28.9692 -8.64637 -11.7455 0.30267 1.77397 18.1015 -15.2259 -2.69751 -11.7192 0.0 0.0 -0.0 0.0 -0.0 -15.734 3.77551 7.56517 -21.7179 -0.271271 -3.30182 16.0354 -19.3201 2.27618 -18.0913 0.0 0.0 0.0 0.0 0.0 
1211.16 712.815 -639.382 -171.61 -77.0573 -168.069 0.074316 -0.0015426 0.317362 0.0743719 -0.021734 0.316621 0.0742723 -0.0874003 0.305094 0.0741442 -0.0381197 0.315068 -23.2894 1.75656 3.82454 -23.2526 1.66715 4.37719 -0.0 0.0 -0.0 2.31033 23.2948 5.87456 -21.0025 -32.561 59.0124 0.872552 -23.3755 0.180506 -72.005 -6.80211 5.31575 -0.861381 14.751 0.686518 -0.0 0.0 -0.0 12.1849 23.8875 -24.0282 -10.2464 17.6611 -55.0731 2.9308 55.4306 -1.53995 -24.1543 1.44428 -2.70678 -1.56414 0.0590952 10.5317 0.0 0.0 0.0 21.3449 28.2468 -8.40329 -11.7164 0.302373 1.76952 19.3542 -14.5154 -2.85158 -10.1246 0.0 0.0 -0.0 0.0 -0.0 -15.0466 4.17499 7.92632 -22.572 -0.256228 -3.43202 18.1487 -22.2182 2.58574 -18.1954 0.0 0.0 0.0 0.0 0.0 
1224.33 713.84 -644.259 -174.454 -76.6529 -170.528 0.114157 -0.0999611 0.28416 0.114194 -0.11784 0.277224 0.113622 -0.172987 0.246607 0.113562 -0.131869 0.270832 -23.5006 1.52043 3.86892 -23.4606 1.2055 4.31266 -0.0 0.0 -0.0 2.76692 23.3591 6.50758 -20.1111 -32.6901 58.7415 0.876105 -23.4604 0.181918 -72.0573 -6.80879 5.31598 -0.948481 16.5268 0.918022 -0.0 0.0 -0.0 12.1491 24.3758 -23.897 -12.0696 18.4705 -54.8478 2.53839 51.4977 -1.22446 -24.7049 1.49003 -2.76049 -1.60186 -1.21558 10.2041 0.0 0.0 0.0 19.3717 27.9549 -8.33068 -11.7842 0.303063 1.77989 20.4851 -14.7922 -3.00621 -8.96496 0.0 0.0 -0.0 0.0 -0.0 -15.051 5.03504 7.4024 -23.2121 -0.243685 -3.52944 20.215 -23.9387 2.88034 -18.0934 0.0 0.0 0.0 0.0 0.0 
